<svg width="97" height="96" viewBox="0 0 97 96" fill="none" xmlns="http://www.w3.org/2000/svg">
<path d="M80.5 60V30L55.5 15.9375M41.5 15.9375L16.5 30V60M22.5 69.375L48.5 84L64.5 75L74.5 69.375" stroke="#00D193" stroke-width="4" stroke-linecap="round" stroke-linejoin="round"/>
<path d="M42.5 37.5L36.5 41V48V55L42.5 58.5L48.5 62L54.5 58.5L60.5 55V48V41L54.5 37.5L48.5 34L42.5 37.5Z" stroke="#00D193" stroke-width="4" stroke-linecap="round" stroke-linejoin="round"/>
<path d="M48.5 34V20" stroke="#00D193" stroke-width="4" stroke-linecap="round" stroke-linejoin="round"/>
<path d="M60.5 54L74.5 62" stroke="#00D193" stroke-width="4" stroke-linecap="round" stroke-linejoin="round"/>
<path d="M36.5 54L22.5 62" stroke="#00D193" stroke-width="4" stroke-linecap="round" stroke-linejoin="round"/>
<path d="M48.5 20C51.8137 20 54.5 17.3137 54.5 14C54.5 10.6863 51.8137 8 48.5 8C45.1863 8 42.5 10.6863 42.5 14C42.5 17.3137 45.1863 20 48.5 20Z" stroke="#00D193" stroke-width="4" stroke-linecap="round" stroke-linejoin="round"/>
<path d="M16.5 72C19.8137 72 22.5 69.3137 22.5 66C22.5 62.6863 19.8137 60 16.5 60C13.1863 60 10.5 62.6863 10.5 66C10.5 69.3137 13.1863 72 16.5 72Z" stroke="#00D193" stroke-width="4" stroke-linecap="round" stroke-linejoin="round"/>
<path d="M80.5 72C83.8137 72 86.5 69.3137 86.5 66C86.5 62.6863 83.8137 60 80.5 60C77.1863 60 74.5 62.6863 74.5 66C74.5 69.3137 77.1863 72 80.5 72Z" stroke="#00D193" stroke-width="4" stroke-linecap="round" stroke-linejoin="round"/>
</svg>
