<svg width="97" height="96" viewBox="0 0 97 96" fill="none" xmlns="http://www.w3.org/2000/svg">
<path d="M28.8335 30C39.8792 30 48.8335 25.5228 48.8335 20C48.8335 14.4772 39.8792 10 28.8335 10C17.7878 10 8.8335 14.4772 8.8335 20C8.8335 25.5228 17.7878 30 28.8335 30Z" stroke="#00D193" stroke-width="4" stroke-linecap="round" stroke-linejoin="round"/>
<path d="M8.8335 20C8.8335 20 8.8335 28.4772 8.8335 34C8.8335 39.5228 17.7878 44 28.8335 44C39.8791 44 48.8335 39.5228 48.8335 34C48.8335 30.7288 48.8335 20 48.8335 20" stroke="#00D193" stroke-width="4" stroke-linecap="round" stroke-linejoin="round"/>
<path d="M8.8335 34C8.8335 34 8.8335 42.4772 8.8335 48C8.8335 53.5228 17.7878 58 28.8335 58C39.8791 58 48.8335 53.5228 48.8335 48C48.8335 44.7288 48.8335 34 48.8335 34" stroke="#00D193" stroke-width="4" stroke-linecap="round" stroke-linejoin="round"/>
<path d="M8.8335 48C8.8335 48 8.8335 56.4772 8.8335 62C8.8335 67.5228 17.7878 72 28.8335 72C39.8791 72 48.8335 67.5228 48.8335 62C48.8335 58.7288 48.8335 48 48.8335 48" stroke="#00D193" stroke-width="4" stroke-linecap="round" stroke-linejoin="round"/>
<path d="M8.8335 62C8.8335 62 8.8335 70.4772 8.8335 76C8.8335 81.5228 17.7878 86 28.8335 86C39.8791 86 48.8335 81.5228 48.8335 76C48.8335 72.7288 48.8335 62 48.8335 62" stroke="#00D193" stroke-width="4" stroke-linecap="round" stroke-linejoin="round"/>
<path d="M68.8335 58C79.8792 58 88.8335 53.5228 88.8335 48C88.8335 42.4772 79.8792 38 68.8335 38C57.7878 38 48.8335 42.4772 48.8335 48C48.8335 53.5228 57.7878 58 68.8335 58Z" stroke="#00D193" stroke-width="4" stroke-linecap="round" stroke-linejoin="round"/>
<path d="M48.8335 48C48.8335 48 48.8335 56.4772 48.8335 62C48.8335 67.5228 57.7879 72 68.8335 72C79.8791 72 88.8335 67.5228 88.8335 62C88.8335 58.7288 88.8335 48 88.8335 48" stroke="#00D193" stroke-width="4" stroke-linecap="round" stroke-linejoin="round"/>
<path d="M48.8335 62C48.8335 62 48.8335 70.4772 48.8335 76C48.8335 81.5228 57.7879 86 68.8335 86C79.8791 86 88.8335 81.5228 88.8335 76C88.8335 72.7288 88.8335 62 88.8335 62" stroke="#00D193" stroke-width="4" stroke-linecap="round" stroke-linejoin="round"/>
</svg>
