<svg width="427" height="220" viewBox="0 0 427 220" fill="none" xmlns="http://www.w3.org/2000/svg">
<path fill-rule="evenodd" clip-rule="evenodd" d="M86.7849 25.7675C67.2612 29.3446 46.7495 32.5464 27.451 36.3611C7.31445 40.3508 20.3969 44.6283 32.1411 49.331C80.6314 68.8171 128.409 89.9292 176.736 109.565C205.865 121.397 210.606 114.543 239.622 106.339C287.375 92.9434 335.189 81.3993 383.079 68.8421C436.06 54.9467 391.747 49.1059 366.457 42.9899C319.28 31.5958 272.053 18.776 224.889 7.00679C206.453 2.41667 203.427 4.19268 185.154 7.66967C152.447 13.9107 119.554 19.7641 86.7849 25.7675ZM220.724 116.194C188.493 124.599 182.802 116.432 153.836 104.187C106.596 84.2009 58.969 64.9649 11.5669 45.3412C-8.26945 37.124 0.0728201 36.7988 16.5948 34.1098C76.3789 24.3167 135.137 12.3348 194.609 1.70375C212.044 -1.41053 214.27 -0.0972714 231.167 4.35527C288.2 19.3639 345.083 33.7971 402.403 47.68C440.037 56.7852 430.706 61.0627 399.676 68.9172C339.729 84.0883 280.508 100.56 220.736 116.194H220.724Z" fill="url(#paint0_linear_467_2058)"/>
<path fill-rule="evenodd" clip-rule="evenodd" d="M17.5582 126.513C14.594 129.99 23.7117 133.679 32.1416 137.606C80.6318 160.332 128.409 184.946 176.737 207.834C205.866 221.629 210.606 213.65 239.623 204.069C287.375 188.448 335.19 174.99 383.08 160.344C408.181 152.665 411.433 147.099 405.23 142.609C406.581 141.033 407.819 139.357 408.907 137.594C438.811 146.937 428.781 151.852 399.689 160.444C339.742 178.142 280.521 197.341 220.749 215.576C188.518 225.382 182.828 215.851 153.861 201.568C106.622 178.267 58.9944 155.829 11.5923 132.954C-6.35543 124.286 -1.24001 123.161 12.1176 120.697C13.731 122.823 15.5571 124.774 17.5707 126.525L17.5582 126.513Z" fill="url(#paint1_linear_467_2058)"/>
<path fill-rule="evenodd" clip-rule="evenodd" d="M15.8319 62.8387C-9.43254 52.7954 -1.17783 51.5447 20.9473 47.7676L22.8359 47.4424C24.3743 48.2679 25.9752 49.0058 27.6011 49.6687C25.8251 50.0189 24.0491 50.3691 22.2856 50.7193C1.28607 54.9342 14.6562 59.0615 27.326 64.0769C75.9538 83.4004 123.956 104.588 172.346 123.836C208.004 138.019 215.946 129.152 250.378 119.734C300.757 105.963 351.224 92.9684 401.127 77.5471C404.116 76.6216 410.132 74.8831 412.821 73.4322C414.022 72.0064 410.883 70.1178 405.642 68.1042C407.093 67.3538 408.506 66.5408 409.845 65.6653C419.925 68.4669 426.292 70.443 426.629 71.0184C428.63 74.4453 395.261 82.8251 392.472 83.6006C332.15 100.185 271.853 117.207 211.544 133.717C192.258 138.995 189.419 134.142 171.308 126.425C120.154 104.638 67.4989 83.5255 15.8319 62.8387Z" fill="url(#paint2_linear_467_2058)"/>
<path fill-rule="evenodd" clip-rule="evenodd" d="M15.8319 78.3351C-9.43254 68.2918 -1.17783 67.0411 20.9473 63.264L21.7603 63.1264C23.1736 63.9894 24.6494 64.7648 26.1628 65.4402C24.8621 65.6904 23.5738 65.953 22.2856 66.2032C1.28607 70.4181 14.6562 74.5454 27.326 79.5608C75.9538 98.8843 123.956 120.071 172.346 139.32C208.004 153.503 215.946 144.635 250.378 135.218C300.757 121.46 351.224 108.452 401.127 93.031C404.116 92.1055 410.132 90.367 412.821 88.9161C414.51 86.915 407.643 84.0008 398.476 81.1367C399.726 80.4738 400.927 79.7734 402.09 79.023C416.573 82.9502 426.216 85.7894 426.642 86.5148C428.643 89.9417 395.274 98.3215 392.485 99.097C332.163 115.681 271.866 132.704 211.556 149.213C192.27 154.491 189.431 149.638 171.321 141.921C120.167 120.134 67.5114 99.0219 15.8444 78.3226L15.8319 78.3351Z" fill="url(#paint3_linear_467_2058)"/>
<path fill-rule="evenodd" clip-rule="evenodd" d="M15.8319 92.6557C-9.43254 82.6125 -1.17783 81.3618 20.9473 77.5846L21.4101 77.5096C22.7734 78.4101 24.1366 79.2105 25.4999 79.8984C24.4243 80.1111 23.3612 80.3237 22.2856 80.5363C1.28607 84.7512 14.6562 88.8786 27.326 93.8939C75.9538 113.217 123.956 134.405 172.346 153.653C208.004 167.836 215.946 158.969 250.378 149.551C300.757 135.793 351.224 122.785 401.127 107.364C404.116 106.439 410.132 104.7 412.821 103.249C414.535 101.223 407.431 98.2464 398.05 95.3448C399.051 94.6194 400.014 93.8564 400.927 93.0435C416.048 97.1333 426.191 100.11 426.629 100.848C428.63 104.275 395.261 112.655 392.472 113.43C332.15 130.015 271.853 147.037 211.544 163.546C192.258 168.824 189.419 163.971 171.308 156.255C120.154 134.467 67.4989 113.355 15.8319 92.6557Z" fill="url(#paint4_linear_467_2058)"/>
<path fill-rule="evenodd" clip-rule="evenodd" d="M15.8306 108.165C-9.42136 98.0963 -1.17916 96.8706 20.946 93.0935L23.4099 92.6682C24.373 93.5687 25.3735 94.4192 26.4241 95.2197C25.0358 95.4948 23.66 95.7575 22.2842 96.0451C1.28474 100.26 14.6549 104.387 27.3246 109.403C36.2047 112.917 45.0473 116.519 53.8898 120.146C53.6647 120.984 53.6772 121.922 54.0149 122.923C54.0524 123.123 54.0774 123.323 54.1024 123.511C41.3201 118.37 28.5628 113.23 15.8431 108.165H15.8306ZM64.2958 124.424C67.7352 125.85 71.1747 127.275 74.6017 128.701C74.1139 129.502 73.8763 130.465 73.9638 131.515L64.4834 127.688C64.7835 126.625 64.721 125.449 64.2833 124.424H64.2958ZM84.4323 132.816C113.749 145.073 142.966 157.468 172.345 169.149C208.003 183.333 215.945 174.465 250.377 165.047C300.756 151.289 351.222 138.282 401.126 122.86C404.115 121.935 410.431 120.647 412.82 118.746C414.946 117.057 407.104 113.605 397.411 110.641C398.662 110.016 399.875 109.34 401.063 108.577C416.109 112.642 426.203 115.606 426.64 116.344C428.642 119.771 395.272 128.151 392.483 128.926C332.161 145.511 271.864 162.533 211.555 179.043C192.269 184.321 189.43 179.468 171.319 171.751C142.44 159.444 113.074 147.362 83.6819 135.443C84.1696 134.705 84.4573 133.804 84.4448 132.816H84.4323ZM333.675 94.4067L330.173 93.5187L331.949 93.5687C332.737 93.7313 333.174 94.0065 333.675 94.4192V94.4067Z" fill="url(#paint5_linear_467_2058)"/>
<path fill-rule="evenodd" clip-rule="evenodd" d="M15.8319 125.049C-9.43254 115.006 -1.17783 113.755 20.9473 109.978C23.061 109.615 25.1747 109.253 27.2759 108.878C28.289 109.766 29.3146 110.579 30.3777 111.341C27.6637 111.854 24.9621 112.392 22.2856 112.93C1.28607 117.145 14.6562 121.272 27.326 126.288C75.9538 145.611 123.956 166.798 172.346 186.047C208.004 200.23 215.946 191.362 250.378 181.944C300.757 168.186 351.224 155.179 401.127 139.758C404.116 138.832 410.132 137.094 412.821 135.643C414.797 133.304 405.017 129.689 393.548 126.388C394.548 125.725 395.536 124.999 396.474 124.236C414.034 128.939 426.166 132.429 426.629 133.241C428.63 136.668 395.261 145.048 392.472 145.811C332.15 162.396 271.853 179.418 211.544 195.927C192.258 201.205 189.419 196.353 171.308 188.636C120.154 166.848 67.4989 145.736 15.8319 125.049Z" fill="url(#paint6_linear_467_2058)"/>
<path fill-rule="evenodd" clip-rule="evenodd" d="M225.64 195.677C229.68 194.814 232.944 195.502 232.944 197.203C232.944 198.904 229.667 200.98 225.64 201.843C221.6 202.706 218.336 202.018 218.336 200.317C218.336 198.616 221.613 196.54 225.64 195.677Z" fill="url(#paint7_linear_467_2058)"/>
<path fill-rule="evenodd" clip-rule="evenodd" d="M247.603 189.123C251.643 188.26 254.907 188.948 254.907 190.649C254.907 192.35 251.63 194.426 247.603 195.289C243.563 196.152 240.299 195.465 240.299 193.764C240.299 192.063 243.576 189.986 247.603 189.123Z" fill="url(#paint8_linear_467_2058)"/>
<path fill-rule="evenodd" clip-rule="evenodd" d="M269.039 183.583C273.078 182.72 276.343 183.408 276.343 185.109C276.343 186.81 273.066 188.886 269.039 189.749C264.999 190.612 261.734 189.924 261.734 188.223C261.734 186.522 265.011 184.446 269.039 183.583Z" fill="url(#paint9_linear_467_2058)"/>
<path fill-rule="evenodd" clip-rule="evenodd" d="M289.751 177.342C293.791 176.479 297.056 177.167 297.056 178.868C297.056 180.569 293.779 182.645 289.751 183.508C285.712 184.371 282.447 183.683 282.447 181.982C282.447 180.281 285.724 178.205 289.751 177.342Z" fill="url(#paint10_linear_467_2058)"/>
<path fill-rule="evenodd" clip-rule="evenodd" d="M312.628 170.938C316.668 170.075 319.933 170.763 319.933 172.464C319.933 174.165 316.656 176.241 312.628 177.104C308.589 177.967 305.324 177.279 305.324 175.578C305.324 173.877 308.601 171.801 312.628 170.938Z" fill="url(#paint11_linear_467_2058)"/>
<path fill-rule="evenodd" clip-rule="evenodd" d="M334.589 164.384C338.629 163.521 341.893 164.209 341.893 165.91C341.893 167.611 338.617 169.687 334.589 170.55C330.55 171.413 327.285 170.725 327.285 169.024C327.285 167.323 330.562 165.247 334.589 164.384Z" fill="url(#paint12_linear_467_2058)"/>
<path fill-rule="evenodd" clip-rule="evenodd" d="M356.027 158.844C360.067 157.981 363.331 158.669 363.331 160.369C363.331 162.07 360.054 164.147 356.027 165.01C351.987 165.873 348.723 165.185 348.723 163.484C348.723 161.783 352 159.707 356.027 158.844Z" fill="url(#paint13_linear_467_2058)"/>
<path fill-rule="evenodd" clip-rule="evenodd" d="M376.74 152.603C380.78 151.74 384.044 152.427 384.044 154.128C384.044 155.829 380.767 157.906 376.74 158.769C372.7 159.632 369.436 158.944 369.436 157.243C369.436 155.542 372.712 153.466 376.74 152.603Z" fill="url(#paint14_linear_467_2058)"/>
<path fill-rule="evenodd" clip-rule="evenodd" d="M225.64 178.455C229.68 177.592 232.944 178.28 232.944 179.981C232.944 181.682 229.667 183.758 225.64 184.621C221.6 185.484 218.336 184.796 218.336 183.095C218.336 181.394 221.613 179.318 225.64 178.455Z" fill="url(#paint15_linear_467_2058)"/>
<path fill-rule="evenodd" clip-rule="evenodd" d="M247.603 171.888C251.643 171.025 254.907 171.713 254.907 173.414C254.907 175.115 251.63 177.192 247.603 178.055C243.563 178.918 240.299 178.23 240.299 176.529C240.299 174.828 243.576 172.751 247.603 171.888Z" fill="url(#paint16_linear_467_2058)"/>
<path fill-rule="evenodd" clip-rule="evenodd" d="M269.039 166.348C273.078 165.485 276.343 166.173 276.343 167.874C276.343 169.575 273.066 171.651 269.039 172.514C264.999 173.377 261.734 172.689 261.734 170.988C261.734 169.287 265.011 167.211 269.039 166.348Z" fill="url(#paint17_linear_467_2058)"/>
<path fill-rule="evenodd" clip-rule="evenodd" d="M289.751 160.119C293.791 159.256 297.056 159.944 297.056 161.645C297.056 163.346 293.779 165.422 289.751 166.285C285.712 167.148 282.447 166.46 282.447 164.759C282.447 163.058 285.724 160.982 289.751 160.119Z" fill="url(#paint18_linear_467_2058)"/>
<path fill-rule="evenodd" clip-rule="evenodd" d="M312.628 153.716C316.668 152.853 319.933 153.54 319.933 155.241C319.933 156.942 316.656 159.019 312.628 159.882C308.589 160.745 305.324 160.057 305.324 158.356C305.324 156.655 308.601 154.579 312.628 153.716Z" fill="url(#paint19_linear_467_2058)"/>
<path fill-rule="evenodd" clip-rule="evenodd" d="M334.589 147.149C338.629 146.286 341.893 146.974 341.893 148.675C341.893 150.376 338.617 152.452 334.589 153.315C330.55 154.178 327.285 153.49 327.285 151.79C327.285 150.089 330.562 148.012 334.589 147.149Z" fill="url(#paint20_linear_467_2058)"/>
<path fill-rule="evenodd" clip-rule="evenodd" d="M356.027 141.609C360.067 140.746 363.331 141.434 363.331 143.135C363.331 144.836 360.054 146.912 356.027 147.775C351.987 148.638 348.723 147.95 348.723 146.249C348.723 144.548 352 142.472 356.027 141.609Z" fill="url(#paint21_linear_467_2058)"/>
<path fill-rule="evenodd" clip-rule="evenodd" d="M376.74 135.38C380.78 134.517 384.044 135.205 384.044 136.906C384.044 138.607 380.767 140.683 376.74 141.546C372.7 142.409 369.436 141.721 369.436 140.02C369.436 138.319 372.712 136.243 376.74 135.38Z" fill="url(#paint22_linear_467_2058)"/>
<path fill-rule="evenodd" clip-rule="evenodd" d="M225.64 162.571C229.68 161.708 232.944 162.396 232.944 164.097C232.944 165.798 229.667 167.874 225.64 168.737C221.6 169.6 218.336 168.912 218.336 167.211C218.336 165.51 221.613 163.434 225.64 162.571Z" fill="url(#paint23_linear_467_2058)"/>
<path fill-rule="evenodd" clip-rule="evenodd" d="M247.603 156.004C251.643 155.141 254.907 155.829 254.907 157.53C254.907 159.231 251.63 161.307 247.603 162.17C243.563 163.033 240.299 162.346 240.299 160.645C240.299 158.944 243.576 156.867 247.603 156.004Z" fill="url(#paint24_linear_467_2058)"/>
<path fill-rule="evenodd" clip-rule="evenodd" d="M269.039 150.476C273.078 149.613 276.343 150.301 276.343 152.002C276.343 153.703 273.066 155.779 269.039 156.642C264.999 157.505 261.734 156.817 261.734 155.116C261.734 153.415 265.011 151.339 269.039 150.476Z" fill="url(#paint25_linear_467_2058)"/>
<path fill-rule="evenodd" clip-rule="evenodd" d="M289.751 144.235C293.791 143.372 297.056 144.06 297.056 145.761C297.056 147.462 293.779 149.538 289.751 150.401C285.712 151.264 282.447 150.576 282.447 148.875C282.447 147.174 285.724 145.098 289.751 144.235Z" fill="url(#paint26_linear_467_2058)"/>
<path fill-rule="evenodd" clip-rule="evenodd" d="M312.628 137.832C316.668 136.969 319.933 137.656 319.933 139.357C319.933 141.058 316.656 143.135 312.628 143.998C308.589 144.861 305.324 144.173 305.324 142.472C305.324 140.771 308.601 138.695 312.628 137.832Z" fill="url(#paint27_linear_467_2058)"/>
<path fill-rule="evenodd" clip-rule="evenodd" d="M334.589 131.265C338.629 130.402 341.893 131.09 341.893 132.791C341.893 134.492 338.617 136.568 334.589 137.431C330.55 138.294 327.285 137.606 327.285 135.905C327.285 134.204 330.562 132.128 334.589 131.265Z" fill="url(#paint28_linear_467_2058)"/>
<path fill-rule="evenodd" clip-rule="evenodd" d="M356.027 125.725C360.067 124.862 363.331 125.55 363.331 127.25C363.331 128.951 360.054 131.028 356.027 131.891C351.987 132.754 348.723 132.066 348.723 130.365C348.723 128.664 352 126.588 356.027 125.725Z" fill="url(#paint29_linear_467_2058)"/>
<path fill-rule="evenodd" clip-rule="evenodd" d="M376.74 119.496C380.78 118.633 384.044 119.321 384.044 121.022C384.044 122.723 380.767 124.799 376.74 125.662C372.7 126.525 369.436 125.837 369.436 124.136C369.436 122.435 372.712 120.359 376.74 119.496Z" fill="url(#paint30_linear_467_2058)"/>
<path fill-rule="evenodd" clip-rule="evenodd" d="M225.64 147.362C229.68 146.499 232.944 147.187 232.944 148.888C232.944 150.589 229.667 152.665 225.64 153.528C221.6 154.391 218.336 153.703 218.336 152.002C218.336 150.301 221.613 148.225 225.64 147.362Z" fill="url(#paint31_linear_467_2058)"/>
<path fill-rule="evenodd" clip-rule="evenodd" d="M247.603 140.796C251.643 139.933 254.907 140.621 254.907 142.322C254.907 144.023 251.63 146.099 247.603 146.962C243.563 147.825 240.299 147.137 240.299 145.436C240.299 143.735 243.576 141.659 247.603 140.796Z" fill="url(#paint32_linear_467_2058)"/>
<path fill-rule="evenodd" clip-rule="evenodd" d="M269.039 135.255C273.078 134.392 276.343 135.08 276.343 136.781C276.343 138.482 273.066 140.558 269.039 141.421C264.999 142.284 261.734 141.596 261.734 139.895C261.734 138.194 265.011 136.118 269.039 135.255Z" fill="url(#paint33_linear_467_2058)"/>
<path fill-rule="evenodd" clip-rule="evenodd" d="M289.751 129.027C293.791 128.164 297.056 128.851 297.056 130.552C297.056 132.253 293.779 134.33 289.751 135.193C285.712 136.056 282.447 135.368 282.447 133.667C282.447 131.966 285.724 129.89 289.751 129.027Z" fill="url(#paint34_linear_467_2058)"/>
<path fill-rule="evenodd" clip-rule="evenodd" d="M312.628 122.623C316.668 121.76 319.933 122.448 319.933 124.149C319.933 125.85 316.656 127.926 312.628 128.789C308.589 129.652 305.324 128.964 305.324 127.263C305.324 125.562 308.601 123.486 312.628 122.623Z" fill="url(#paint35_linear_467_2058)"/>
<path fill-rule="evenodd" clip-rule="evenodd" d="M334.589 116.057C338.629 115.194 341.893 115.882 341.893 117.583C341.893 119.283 338.617 121.36 334.589 122.223C330.55 123.086 327.285 122.398 327.285 120.697C327.285 118.996 330.562 116.92 334.589 116.057Z" fill="url(#paint36_linear_467_2058)"/>
<path fill-rule="evenodd" clip-rule="evenodd" d="M356.027 110.516C360.067 109.653 363.331 110.341 363.331 112.042C363.331 113.743 360.054 115.819 356.027 116.682C351.987 117.545 348.723 116.857 348.723 115.156C348.723 113.455 352 111.379 356.027 110.516Z" fill="url(#paint37_linear_467_2058)"/>
<path fill-rule="evenodd" clip-rule="evenodd" d="M376.74 104.287C380.78 103.424 384.044 104.112 384.044 105.813C384.044 107.514 380.767 109.59 376.74 110.453C372.7 111.316 369.436 110.629 369.436 108.928C369.436 107.227 372.712 105.15 376.74 104.287Z" fill="url(#paint38_linear_467_2058)"/>
<path fill-rule="evenodd" clip-rule="evenodd" d="M77.4653 113.243L81.305 114.556C84.0065 115.469 86.2078 118.696 86.2078 121.697V148.888C86.2078 151.902 83.994 153.616 81.305 152.69L77.4653 151.377C74.7638 150.451 72.5625 147.237 72.5625 144.223V117.045C72.5625 114.03 74.7763 112.317 77.4653 113.243ZM78.1782 120.634C76.4897 120.059 75.114 121.135 75.114 123.011V140.008C75.114 141.896 76.4897 143.898 78.1782 144.473L80.5796 145.286C82.268 145.861 83.6438 144.786 83.6438 142.909V125.912C83.6438 124.024 82.268 122.023 80.5796 121.447L78.1782 120.634Z" fill="url(#paint39_linear_467_2058)" fill-opacity="0.64"/>
<path fill-rule="evenodd" clip-rule="evenodd" d="M57.9555 104.925L61.7952 106.239C64.4968 107.164 66.698 110.378 66.698 113.38V140.571C66.698 143.585 64.4843 145.298 61.7952 144.373L57.9555 143.06C55.254 142.134 53.0527 138.92 53.0527 135.905V108.727C53.0527 105.713 55.2665 104 57.9555 104.925ZM58.6309 111.842C56.8799 111.241 55.4416 112.355 55.4416 114.318V131.978C55.4416 133.942 56.8799 136.031 58.6309 136.618L61.1198 137.469C62.8708 138.069 64.3092 136.956 64.3092 134.992V117.332C64.3092 115.381 62.8708 113.28 61.1198 112.692L58.6309 111.842Z" fill="url(#paint40_linear_467_2058)" fill-opacity="0.64"/>
<path fill-rule="evenodd" clip-rule="evenodd" d="M31.5029 102.624L33.8918 103.437C35.5677 104.012 36.9435 106.013 36.9435 107.889V124.824C36.9435 126.7 35.5677 127.763 33.8918 127.201L31.5029 126.388C29.827 125.812 28.4512 123.811 28.4512 121.935V105C28.4512 103.124 29.827 102.061 31.5029 102.624Z" fill="url(#paint41_linear_467_2058)" fill-opacity="0.64"/>
<path fill-rule="evenodd" clip-rule="evenodd" d="M258.419 31.3582C257.519 31.2331 256.618 31.1706 255.718 31.1581C254.33 31.1456 252.991 31.2581 251.766 31.4833C250.765 31.6709 249.864 31.9335 249.089 32.2587L205.377 26.0426C205.464 25.5674 205.326 25.0921 205.001 24.6418C204.138 23.4787 201.962 22.4906 198.973 22.0654C198.072 21.9403 197.172 21.8778 196.271 21.8653C194.883 21.8528 193.545 21.9653 192.319 22.1904C190.093 22.6032 188.292 23.3911 187.504 24.4417C187.091 24.992 187.004 25.5549 187.191 26.1052C187.341 26.5805 187.729 27.0307 188.292 27.456L155.686 39.5379C154.848 39.2502 153.872 39.0251 152.784 38.875C151.883 38.7499 150.983 38.6874 150.082 38.6749C148.694 38.6624 147.356 38.7749 146.13 39.0001C143.904 39.4128 142.103 40.2007 141.315 41.2513C140.902 41.8017 140.815 42.3645 141.002 42.9148C141.19 43.4776 141.69 44.0279 142.453 44.5032C143.128 44.9285 143.991 45.3037 145.017 45.5913C145.717 45.7914 146.505 45.9665 147.356 46.0791C147.831 46.1416 148.319 46.1917 148.794 46.2292C149.057 46.2417 149.32 46.2667 149.57 46.2667L159.675 65.0399C159.575 65.0525 159.488 65.065 159.4 65.0775C157.174 65.4902 155.373 66.2782 154.585 67.3288C154.172 67.8791 154.085 68.4419 154.272 68.9922C154.46 69.555 154.96 70.1053 155.723 70.5806C156.399 71.0058 157.262 71.3811 158.287 71.6687C158.988 71.8689 159.775 72.044 160.626 72.1565C161.101 72.2191 161.589 72.2691 162.064 72.3066C164.303 72.4692 166.542 72.2691 168.368 71.7938C169.481 71.5061 170.457 71.1059 171.169 70.6181C171.194 70.6056 171.207 70.5931 171.232 70.5806L213.756 76.6341C213.756 76.8467 213.756 77.0593 213.844 77.2594C214.031 77.8347 214.532 78.3726 215.295 78.8478C215.97 79.2731 216.833 79.6483 217.859 79.9485C218.559 80.1486 219.347 80.3237 220.198 80.4362C220.673 80.4988 221.161 80.5488 221.636 80.5863C223.887 80.7489 226.113 80.5488 227.939 80.0735C229.065 79.7859 230.028 79.3857 230.741 78.8979C231.116 78.6477 231.429 78.3726 231.654 78.0724C231.804 77.8848 231.904 77.6847 231.967 77.4971C232.179 76.9217 232.042 76.3464 231.654 75.8211C231.591 75.7461 231.529 75.6585 231.441 75.571L264.56 63.3015C265.123 63.439 265.736 63.5641 266.386 63.6517C266.862 63.7142 267.349 63.7642 267.825 63.8017C270.076 63.9643 272.302 63.7642 274.128 63.2889C275.254 63.0013 276.217 62.601 276.93 62.1133C277.305 61.8631 277.618 61.588 277.855 61.2878C278.006 61.1002 278.106 60.9001 278.168 60.7125C278.381 60.1371 278.243 59.5618 277.855 59.0365C276.992 57.8733 274.816 56.8728 271.827 56.46C271.389 56.3975 270.939 56.3475 270.489 56.3225L260.771 38.2496C261.884 37.962 262.859 37.5617 263.56 37.074C263.935 36.8238 264.248 36.5487 264.473 36.2485C264.623 36.0609 264.71 35.8608 264.785 35.6731C264.998 35.0978 264.861 34.5225 264.473 33.9972C263.61 32.834 261.434 31.8335 258.444 31.4207L258.419 31.3582ZM265.423 56.4976C265.336 56.5101 265.248 56.5226 265.161 56.5351C264.385 56.6727 263.672 56.8728 263.035 57.0979L255.993 55.4344C256.393 54.0837 254.992 52.7329 252.428 51.8949L256.631 40.1007L265.436 56.485L265.423 56.4976ZM231.516 72.6568L247.363 58.6738C249.839 58.6488 252.178 58.211 253.804 57.4606C253.879 57.4231 253.929 57.3981 254.004 57.3606L260.308 58.8489C259.933 59.3867 259.845 59.9245 260.033 60.4498C260.183 60.9001 260.533 61.3253 261.033 61.7255L231.516 72.6693V72.6568ZM191.931 28.9443C192.444 29.0694 192.994 29.1694 193.57 29.257C194.045 29.3195 194.533 29.3695 195.008 29.4071C195.258 29.4196 195.496 29.4321 195.746 29.4446L197.947 33.5344C196.221 33.9347 194.833 34.5725 194.058 35.398L161.814 40.1132L191.931 28.9443ZM247.576 51.0945C247.1 51.0694 246.613 51.0695 246.15 51.082C245.237 51.0945 244.349 51.182 243.511 51.3071L211.38 38.0495C211.493 37.8869 211.58 37.7118 211.643 37.5492C211.793 37.1365 211.768 36.7112 211.593 36.311L246.738 35.6106C246.975 36.0984 247.426 36.5737 248.088 36.9989C248.764 37.4242 249.627 37.7994 250.652 38.087C251.103 38.2121 251.578 38.3247 252.078 38.4247L247.563 51.0945H247.576ZM225.275 73.1696C224.5 73.0695 223.7 73.0195 222.924 73.007C221.536 72.9945 220.198 73.107 218.972 73.3322C218.697 73.3822 218.434 73.4447 218.171 73.4948L187.604 62.5885C187.754 62.4885 187.904 62.3884 188.042 62.2759C188.267 62.1008 188.454 61.9132 188.604 61.7005C188.817 61.4129 188.942 61.1252 188.992 60.8375L239.121 56.7727C239.684 57.1479 240.397 57.4981 241.247 57.7858C241.585 57.8984 241.947 57.9984 242.323 58.0985L225.263 73.1571L225.275 73.1696ZM156.849 45.091C157.249 44.9159 157.612 44.7158 157.937 44.5032C158.312 44.2531 158.625 43.9779 158.85 43.6777C159 43.4901 159.088 43.29 159.163 43.1024C159.213 42.9773 159.225 42.8648 159.25 42.7397L193.732 37.6993C193.995 38.1246 194.42 38.5248 194.983 38.8875C195.121 38.975 195.258 39.0501 195.396 39.1251L179.237 56.6602C178.349 56.6727 177.473 56.7477 176.648 56.8603C176.31 56.9103 175.972 56.9728 175.66 57.0354L156.861 45.091H156.849ZM199.886 40.4759C200.361 40.5384 200.849 40.5885 201.324 40.626C203.575 40.7886 205.802 40.5885 207.628 40.1132C207.978 40.0256 208.303 39.9256 208.616 39.813L239.496 52.5578C239.346 52.6453 239.196 52.7329 239.071 52.8205C238.696 53.0706 238.395 53.3458 238.17 53.6459C237.895 54.0086 237.758 54.3838 237.758 54.7465L187.954 58.7739C187.241 58.211 186.216 57.7233 184.94 57.3606C184.715 57.298 184.49 57.2355 184.264 57.1855L199.686 40.4509C199.761 40.4509 199.823 40.4759 199.898 40.4884L199.886 40.4759ZM208.979 34.2348C207.978 33.8096 206.727 33.4844 205.301 33.2718C204.489 33.1592 203.663 33.0967 202.85 33.0717L200.686 29.0318C200.899 28.9818 201.099 28.9318 201.312 28.8818C202.212 28.6441 203.013 28.344 203.663 27.9813L242.773 33.5469L208.979 34.2223V34.2348ZM171.92 58.4737C171.582 58.7113 171.307 58.9615 171.107 59.2366C170.294 60.3248 170.732 61.4504 172.07 62.3634L167.092 65.115C166.767 65.0525 166.417 64.9899 166.067 64.9399C165.641 64.8773 165.204 64.8273 164.766 64.8023L155.873 48.2679L171.92 58.4612V58.4737ZM172.108 67.5289C171.845 67.1787 171.47 66.841 170.982 66.5283L175.847 63.8393C175.997 63.8768 176.16 63.9018 176.322 63.9393C176.598 63.9893 176.873 64.0394 177.173 64.0769C179.449 64.4021 181.801 64.327 183.802 63.9643L212.581 74.2327L172.52 68.542C172.495 68.2043 172.37 67.8666 172.133 67.5414L172.108 67.5289Z" fill="url(#paint42_linear_467_2058)"/>
<defs>
<linearGradient id="paint0_linear_467_2058" x1="213.493" y1="0" x2="213.493" y2="119.631" gradientUnits="userSpaceOnUse">
<stop stop-color="#007351" stop-opacity="0.72"/>
<stop offset="0.02" stop-color="#09CB93" stop-opacity="0.7172"/>
<stop offset="1" stop-color="#387D9D" stop-opacity="0.58"/>
</linearGradient>
<linearGradient id="paint1_linear_467_2058" x1="213.51" y1="120.697" x2="213.51" y2="219.586" gradientUnits="userSpaceOnUse">
<stop stop-color="#007351" stop-opacity="0.72"/>
<stop offset="0.02" stop-color="#09CB93" stop-opacity="0.7172"/>
<stop offset="1" stop-color="#387D9D" stop-opacity="0.58"/>
</linearGradient>
<linearGradient id="paint2_linear_467_2058" x1="213.494" y1="47.4424" x2="213.494" y2="135.93" gradientUnits="userSpaceOnUse">
<stop stop-color="#007351" stop-opacity="0.72"/>
<stop offset="0.02" stop-color="#09CB93" stop-opacity="0.7172"/>
<stop offset="1" stop-color="#387D9D" stop-opacity="0.58"/>
</linearGradient>
<linearGradient id="paint3_linear_467_2058" x1="213.5" y1="63.1264" x2="213.5" y2="151.426" gradientUnits="userSpaceOnUse">
<stop stop-color="#007351" stop-opacity="0.72"/>
<stop offset="0.02" stop-color="#09CB93" stop-opacity="0.7172"/>
<stop offset="1" stop-color="#387D9D" stop-opacity="0.58"/>
</linearGradient>
<linearGradient id="paint4_linear_467_2058" x1="213.494" y1="77.5096" x2="213.494" y2="165.759" gradientUnits="userSpaceOnUse">
<stop stop-color="#007351" stop-opacity="0.72"/>
<stop offset="0.02" stop-color="#09CB93" stop-opacity="0.7172"/>
<stop offset="1" stop-color="#387D9D" stop-opacity="0.58"/>
</linearGradient>
<linearGradient id="paint5_linear_467_2058" x1="213.501" y1="92.6682" x2="213.501" y2="181.256" gradientUnits="userSpaceOnUse">
<stop stop-color="#007351" stop-opacity="0.72"/>
<stop offset="0.02" stop-color="#09CB93" stop-opacity="0.7172"/>
<stop offset="1" stop-color="#387D9D" stop-opacity="0.58"/>
</linearGradient>
<linearGradient id="paint6_linear_467_2058" x1="213.494" y1="108.878" x2="213.494" y2="198.14" gradientUnits="userSpaceOnUse">
<stop stop-color="#007351" stop-opacity="0.72"/>
<stop offset="0.02" stop-color="#09CB93" stop-opacity="0.7172"/>
<stop offset="1" stop-color="#387D9D" stop-opacity="0.58"/>
</linearGradient>
<linearGradient id="paint7_linear_467_2058" x1="225.64" y1="195.304" x2="225.64" y2="202.216" gradientUnits="userSpaceOnUse">
<stop stop-color="#007351" stop-opacity="0.72"/>
<stop offset="0.02" stop-color="#09CB93" stop-opacity="0.7172"/>
<stop offset="1" stop-color="#387D9D" stop-opacity="0.58"/>
</linearGradient>
<linearGradient id="paint8_linear_467_2058" x1="247.603" y1="188.751" x2="247.603" y2="195.662" gradientUnits="userSpaceOnUse">
<stop stop-color="#007351" stop-opacity="0.72"/>
<stop offset="0.02" stop-color="#09CB93" stop-opacity="0.7172"/>
<stop offset="1" stop-color="#387D9D" stop-opacity="0.58"/>
</linearGradient>
<linearGradient id="paint9_linear_467_2058" x1="269.039" y1="183.21" x2="269.039" y2="190.121" gradientUnits="userSpaceOnUse">
<stop stop-color="#007351" stop-opacity="0.72"/>
<stop offset="0.02" stop-color="#09CB93" stop-opacity="0.7172"/>
<stop offset="1" stop-color="#387D9D" stop-opacity="0.58"/>
</linearGradient>
<linearGradient id="paint10_linear_467_2058" x1="289.751" y1="176.969" x2="289.751" y2="183.88" gradientUnits="userSpaceOnUse">
<stop stop-color="#007351" stop-opacity="0.72"/>
<stop offset="0.02" stop-color="#09CB93" stop-opacity="0.7172"/>
<stop offset="1" stop-color="#387D9D" stop-opacity="0.58"/>
</linearGradient>
<linearGradient id="paint11_linear_467_2058" x1="312.628" y1="170.565" x2="312.628" y2="177.477" gradientUnits="userSpaceOnUse">
<stop stop-color="#007351" stop-opacity="0.72"/>
<stop offset="0.02" stop-color="#09CB93" stop-opacity="0.7172"/>
<stop offset="1" stop-color="#387D9D" stop-opacity="0.58"/>
</linearGradient>
<linearGradient id="paint12_linear_467_2058" x1="334.589" y1="164.012" x2="334.589" y2="170.923" gradientUnits="userSpaceOnUse">
<stop stop-color="#007351" stop-opacity="0.72"/>
<stop offset="0.02" stop-color="#09CB93" stop-opacity="0.7172"/>
<stop offset="1" stop-color="#387D9D" stop-opacity="0.58"/>
</linearGradient>
<linearGradient id="paint13_linear_467_2058" x1="356.027" y1="158.471" x2="356.027" y2="165.382" gradientUnits="userSpaceOnUse">
<stop stop-color="#007351" stop-opacity="0.72"/>
<stop offset="0.02" stop-color="#09CB93" stop-opacity="0.7172"/>
<stop offset="1" stop-color="#387D9D" stop-opacity="0.58"/>
</linearGradient>
<linearGradient id="paint14_linear_467_2058" x1="376.74" y1="152.23" x2="376.74" y2="159.141" gradientUnits="userSpaceOnUse">
<stop stop-color="#007351" stop-opacity="0.72"/>
<stop offset="0.02" stop-color="#09CB93" stop-opacity="0.7172"/>
<stop offset="1" stop-color="#387D9D" stop-opacity="0.58"/>
</linearGradient>
<linearGradient id="paint15_linear_467_2058" x1="225.64" y1="178.082" x2="225.64" y2="184.993" gradientUnits="userSpaceOnUse">
<stop stop-color="#007351" stop-opacity="0.72"/>
<stop offset="0.02" stop-color="#09CB93" stop-opacity="0.7172"/>
<stop offset="1" stop-color="#387D9D" stop-opacity="0.58"/>
</linearGradient>
<linearGradient id="paint16_linear_467_2058" x1="247.603" y1="171.516" x2="247.603" y2="178.427" gradientUnits="userSpaceOnUse">
<stop stop-color="#007351" stop-opacity="0.72"/>
<stop offset="0.02" stop-color="#09CB93" stop-opacity="0.7172"/>
<stop offset="1" stop-color="#387D9D" stop-opacity="0.58"/>
</linearGradient>
<linearGradient id="paint17_linear_467_2058" x1="269.039" y1="165.975" x2="269.039" y2="172.887" gradientUnits="userSpaceOnUse">
<stop stop-color="#007351" stop-opacity="0.72"/>
<stop offset="0.02" stop-color="#09CB93" stop-opacity="0.7172"/>
<stop offset="1" stop-color="#387D9D" stop-opacity="0.58"/>
</linearGradient>
<linearGradient id="paint18_linear_467_2058" x1="289.751" y1="159.747" x2="289.751" y2="166.658" gradientUnits="userSpaceOnUse">
<stop stop-color="#007351" stop-opacity="0.72"/>
<stop offset="0.02" stop-color="#09CB93" stop-opacity="0.7172"/>
<stop offset="1" stop-color="#387D9D" stop-opacity="0.58"/>
</linearGradient>
<linearGradient id="paint19_linear_467_2058" x1="312.628" y1="153.343" x2="312.628" y2="160.254" gradientUnits="userSpaceOnUse">
<stop stop-color="#007351" stop-opacity="0.72"/>
<stop offset="0.02" stop-color="#09CB93" stop-opacity="0.7172"/>
<stop offset="1" stop-color="#387D9D" stop-opacity="0.58"/>
</linearGradient>
<linearGradient id="paint20_linear_467_2058" x1="334.589" y1="146.777" x2="334.589" y2="153.688" gradientUnits="userSpaceOnUse">
<stop stop-color="#007351" stop-opacity="0.72"/>
<stop offset="0.02" stop-color="#09CB93" stop-opacity="0.7172"/>
<stop offset="1" stop-color="#387D9D" stop-opacity="0.58"/>
</linearGradient>
<linearGradient id="paint21_linear_467_2058" x1="356.027" y1="141.236" x2="356.027" y2="148.147" gradientUnits="userSpaceOnUse">
<stop stop-color="#007351" stop-opacity="0.72"/>
<stop offset="0.02" stop-color="#09CB93" stop-opacity="0.7172"/>
<stop offset="1" stop-color="#387D9D" stop-opacity="0.58"/>
</linearGradient>
<linearGradient id="paint22_linear_467_2058" x1="376.74" y1="135.007" x2="376.74" y2="141.919" gradientUnits="userSpaceOnUse">
<stop stop-color="#007351" stop-opacity="0.72"/>
<stop offset="0.02" stop-color="#09CB93" stop-opacity="0.7172"/>
<stop offset="1" stop-color="#387D9D" stop-opacity="0.58"/>
</linearGradient>
<linearGradient id="paint23_linear_467_2058" x1="225.64" y1="162.198" x2="225.64" y2="169.109" gradientUnits="userSpaceOnUse">
<stop stop-color="#007351" stop-opacity="0.72"/>
<stop offset="0.02" stop-color="#09CB93" stop-opacity="0.7172"/>
<stop offset="1" stop-color="#387D9D" stop-opacity="0.58"/>
</linearGradient>
<linearGradient id="paint24_linear_467_2058" x1="247.603" y1="155.632" x2="247.603" y2="162.543" gradientUnits="userSpaceOnUse">
<stop stop-color="#007351" stop-opacity="0.72"/>
<stop offset="0.02" stop-color="#09CB93" stop-opacity="0.7172"/>
<stop offset="1" stop-color="#387D9D" stop-opacity="0.58"/>
</linearGradient>
<linearGradient id="paint25_linear_467_2058" x1="269.039" y1="150.104" x2="269.039" y2="157.015" gradientUnits="userSpaceOnUse">
<stop stop-color="#007351" stop-opacity="0.72"/>
<stop offset="0.02" stop-color="#09CB93" stop-opacity="0.7172"/>
<stop offset="1" stop-color="#387D9D" stop-opacity="0.58"/>
</linearGradient>
<linearGradient id="paint26_linear_467_2058" x1="289.751" y1="143.863" x2="289.751" y2="150.774" gradientUnits="userSpaceOnUse">
<stop stop-color="#007351" stop-opacity="0.72"/>
<stop offset="0.02" stop-color="#09CB93" stop-opacity="0.7172"/>
<stop offset="1" stop-color="#387D9D" stop-opacity="0.58"/>
</linearGradient>
<linearGradient id="paint27_linear_467_2058" x1="312.628" y1="137.459" x2="312.628" y2="144.37" gradientUnits="userSpaceOnUse">
<stop stop-color="#007351" stop-opacity="0.72"/>
<stop offset="0.02" stop-color="#09CB93" stop-opacity="0.7172"/>
<stop offset="1" stop-color="#387D9D" stop-opacity="0.58"/>
</linearGradient>
<linearGradient id="paint28_linear_467_2058" x1="334.589" y1="130.893" x2="334.589" y2="137.804" gradientUnits="userSpaceOnUse">
<stop stop-color="#007351" stop-opacity="0.72"/>
<stop offset="0.02" stop-color="#09CB93" stop-opacity="0.7172"/>
<stop offset="1" stop-color="#387D9D" stop-opacity="0.58"/>
</linearGradient>
<linearGradient id="paint29_linear_467_2058" x1="356.027" y1="125.352" x2="356.027" y2="132.263" gradientUnits="userSpaceOnUse">
<stop stop-color="#007351" stop-opacity="0.72"/>
<stop offset="0.02" stop-color="#09CB93" stop-opacity="0.7172"/>
<stop offset="1" stop-color="#387D9D" stop-opacity="0.58"/>
</linearGradient>
<linearGradient id="paint30_linear_467_2058" x1="376.74" y1="119.123" x2="376.74" y2="126.035" gradientUnits="userSpaceOnUse">
<stop stop-color="#007351" stop-opacity="0.72"/>
<stop offset="0.02" stop-color="#09CB93" stop-opacity="0.7172"/>
<stop offset="1" stop-color="#387D9D" stop-opacity="0.58"/>
</linearGradient>
<linearGradient id="paint31_linear_467_2058" x1="225.64" y1="146.989" x2="225.64" y2="153.901" gradientUnits="userSpaceOnUse">
<stop stop-color="#007351" stop-opacity="0.72"/>
<stop offset="0.02" stop-color="#09CB93" stop-opacity="0.7172"/>
<stop offset="1" stop-color="#387D9D" stop-opacity="0.58"/>
</linearGradient>
<linearGradient id="paint32_linear_467_2058" x1="247.603" y1="140.423" x2="247.603" y2="147.334" gradientUnits="userSpaceOnUse">
<stop stop-color="#007351" stop-opacity="0.72"/>
<stop offset="0.02" stop-color="#09CB93" stop-opacity="0.7172"/>
<stop offset="1" stop-color="#387D9D" stop-opacity="0.58"/>
</linearGradient>
<linearGradient id="paint33_linear_467_2058" x1="269.039" y1="134.883" x2="269.039" y2="141.794" gradientUnits="userSpaceOnUse">
<stop stop-color="#007351" stop-opacity="0.72"/>
<stop offset="0.02" stop-color="#09CB93" stop-opacity="0.7172"/>
<stop offset="1" stop-color="#387D9D" stop-opacity="0.58"/>
</linearGradient>
<linearGradient id="paint34_linear_467_2058" x1="289.751" y1="128.654" x2="289.751" y2="135.565" gradientUnits="userSpaceOnUse">
<stop stop-color="#007351" stop-opacity="0.72"/>
<stop offset="0.02" stop-color="#09CB93" stop-opacity="0.7172"/>
<stop offset="1" stop-color="#387D9D" stop-opacity="0.58"/>
</linearGradient>
<linearGradient id="paint35_linear_467_2058" x1="312.628" y1="122.25" x2="312.628" y2="129.162" gradientUnits="userSpaceOnUse">
<stop stop-color="#007351" stop-opacity="0.72"/>
<stop offset="0.02" stop-color="#09CB93" stop-opacity="0.7172"/>
<stop offset="1" stop-color="#387D9D" stop-opacity="0.58"/>
</linearGradient>
<linearGradient id="paint36_linear_467_2058" x1="334.589" y1="115.684" x2="334.589" y2="122.595" gradientUnits="userSpaceOnUse">
<stop stop-color="#007351" stop-opacity="0.72"/>
<stop offset="0.02" stop-color="#09CB93" stop-opacity="0.7172"/>
<stop offset="1" stop-color="#387D9D" stop-opacity="0.58"/>
</linearGradient>
<linearGradient id="paint37_linear_467_2058" x1="356.027" y1="110.143" x2="356.027" y2="117.055" gradientUnits="userSpaceOnUse">
<stop stop-color="#007351" stop-opacity="0.72"/>
<stop offset="0.02" stop-color="#09CB93" stop-opacity="0.7172"/>
<stop offset="1" stop-color="#387D9D" stop-opacity="0.58"/>
</linearGradient>
<linearGradient id="paint38_linear_467_2058" x1="376.74" y1="103.915" x2="376.74" y2="110.826" gradientUnits="userSpaceOnUse">
<stop stop-color="#007351" stop-opacity="0.72"/>
<stop offset="0.02" stop-color="#09CB93" stop-opacity="0.7172"/>
<stop offset="1" stop-color="#387D9D" stop-opacity="0.58"/>
</linearGradient>
<linearGradient id="paint39_linear_467_2058" x1="79.3851" y1="112.991" x2="79.3851" y2="152.941" gradientUnits="userSpaceOnUse">
<stop stop-color="#066E4F"/>
<stop offset="1" stop-color="#0CD498"/>
</linearGradient>
<linearGradient id="paint40_linear_467_2058" x1="59.8754" y1="104.674" x2="59.8754" y2="144.624" gradientUnits="userSpaceOnUse">
<stop stop-color="#066E4F"/>
<stop offset="1" stop-color="#0CD498"/>
</linearGradient>
<linearGradient id="paint41_linear_467_2058" x1="32.6973" y1="102.473" x2="32.6973" y2="127.351" gradientUnits="userSpaceOnUse">
<stop stop-color="#066E4F"/>
<stop offset="1" stop-color="#0CD498"/>
</linearGradient>
<linearGradient id="paint42_linear_467_2058" x1="209.588" y1="21.8643" x2="209.588" y2="80.642" gradientUnits="userSpaceOnUse">
<stop stop-color="#007351" stop-opacity="0.72"/>
<stop offset="0.02" stop-color="#09CB93" stop-opacity="0.7172"/>
<stop offset="1" stop-color="#387D9D" stop-opacity="0.58"/>
</linearGradient>
</defs>
</svg>
