<svg width="64" height="64" viewBox="0 0 64 64" fill="none" xmlns="http://www.w3.org/2000/svg">
<path d="M23.9987 34.6667C22.2387 35.5467 20.7721 36.8534 19.6788 38.4801C19.0654 39.4134 19.0654 40.5867 19.6788 41.5201C20.7721 43.1467 22.2387 44.4534 23.9987 45.3334" stroke="#00D193" stroke-width="1.5" stroke-linecap="round" stroke-linejoin="round"/>
<path d="M40.5601 34.6667C42.3201 35.5467 43.7867 36.8534 44.8801 38.4801C45.4934 39.4134 45.4934 40.5867 44.8801 41.5201C43.7867 43.1467 42.3201 44.4534 40.5601 45.3334" stroke="#00D193" stroke-width="1.5" stroke-linecap="round" stroke-linejoin="round"/>
<path d="M24 58.6666H40C53.3334 58.6666 58.6667 53.3332 58.6667 39.9999V23.9999C58.6667 10.6666 53.3334 5.33325 40 5.33325H24C10.6667 5.33325 5.33337 10.6666 5.33337 23.9999V39.9999C5.33337 53.3332 10.6667 58.6666 24 58.6666Z" stroke="#00D193" stroke-width="1.5" stroke-linecap="round" stroke-linejoin="round"/>
<path d="M5.94788 21.3599L57.2012 21.3333" stroke="#00D193" stroke-width="1.5" stroke-linecap="round" stroke-linejoin="round"/>
</svg>
