<svg width="205" height="23" viewBox="0 0 205 23" fill="none" xmlns="http://www.w3.org/2000/svg">
<g id="Logomark - Nebulosa Font">
<path id="Vector" d="M19.9805 0.614258C18.7717 0.614258 18.0777 1.3082 18.0777 2.517V16.3007L5.04394 0.796137L4.89145 0.614258H0.660645V22.5336H3.26012C4.46892 22.5336 5.16287 21.8396 5.16287 20.6308V6.84713L18.1966 22.3531L18.3491 22.535H22.5799V0.614258H19.9805Z" fill="#00D193"/>
<path id="Vector_2" d="M29.6359 13.4004V14.7701C29.6359 17.5095 31.0056 18.8806 33.7464 18.8806H45.1628C46.38 18.8806 46.99 19.4892 46.99 20.7078V22.535H32.8328C27.6576 22.535 25.0693 19.9467 25.0693 14.7715V8.37772C25.0693 3.20255 27.6576 0.614258 32.8328 0.614258H40.5963C45.7714 0.614258 48.3597 3.20255 48.3597 8.37772V13.4004H29.6359ZM29.6359 9.74741H43.7931V8.37772C43.7931 5.63833 42.4235 4.26724 39.6827 4.26724H33.7464C31.007 4.26724 29.6359 5.63693 29.6359 8.37772V9.74741Z" fill="#00D193"/>
<path id="Vector_3" d="M50.2097 0.614258H49.7004V2.517C49.7004 3.7258 50.3944 4.41974 51.6032 4.41974H58.7566V22.5336H63.2589V4.41974H70.4123C71.6211 4.41974 72.3151 3.7258 72.3151 2.517V0.614258H50.2083H50.2097Z" fill="#00D193"/>
<path id="Vector_4" d="M107.444 0.614258C106.301 0.614258 105.474 1.21026 105.052 2.33792L99.9844 16.1888L94.3951 0.948637L94.272 0.614258H90.0761L89.953 0.948637L84.3651 16.1888L79.2991 2.34211C78.8752 1.21026 78.0469 0.614258 76.9053 0.614258H74.2302L74.4807 1.2998L82.1448 22.2006L82.2679 22.535H86.4637L86.5869 22.2006L92.1762 6.95906L97.7655 22.2006L97.8886 22.535H102.084L102.208 22.2006L109.867 1.2998L110.118 0.614258H107.443H107.444Z" fill="#00D193"/>
<path id="Vector_5" d="M125.676 0.614258H118.709C116.141 0.614258 114.174 1.28022 112.862 2.59255C111.55 3.90488 110.884 5.87198 110.884 8.43928V14.7099C110.884 17.2772 111.55 19.2443 112.862 20.5567C114.174 21.869 116.141 22.535 118.709 22.535H125.676C128.243 22.535 130.21 21.869 131.523 20.5567C132.835 19.2443 133.501 17.2772 133.501 14.7099V8.43928C133.501 5.87198 132.835 3.90488 131.523 2.59255C130.21 1.28022 128.243 0.614258 125.676 0.614258ZM128.999 8.43928V14.7099C128.999 17.4521 127.722 18.7295 124.979 18.7295H119.405C116.663 18.7295 115.386 17.4521 115.386 14.7099V8.43928C115.386 5.69709 116.663 4.41974 119.405 4.41974H124.979C127.722 4.41974 128.999 5.69709 128.999 8.43928Z" fill="#00D193"/>
<path id="Vector_6" d="M151.256 13.4676C153.131 13.3906 154.586 12.8464 155.585 11.8474C156.666 10.7659 157.215 9.15001 157.215 7.0458C157.215 4.94159 156.666 3.32566 155.585 2.24418C154.504 1.16269 152.888 0.614258 150.783 0.614258H135.991V22.5336H138.59C139.799 22.5336 140.493 21.8396 140.493 20.6308V13.4773H145.842L152.104 20.9582C152.987 22.0047 153.977 22.5336 155.049 22.5336H158.839L158.14 21.6969L151.255 13.4662L151.256 13.4676ZM152.713 7.0458C152.713 8.8618 151.903 9.67186 150.087 9.67186H140.495V4.41974H150.087C151.903 4.41974 152.713 5.2298 152.713 7.0458Z" fill="#00D193"/>
<path id="Vector_7" d="M183.604 0.614258H179.812C178.741 0.614258 177.75 1.14451 176.869 2.18822L170.605 9.67047H165.256V2.517C165.256 1.3082 164.562 0.614258 163.354 0.614258H160.754V22.5336H163.354C164.562 22.5336 165.256 21.8396 165.256 20.6308V13.4773H170.605L176.867 20.9582C177.75 22.0047 178.741 22.5336 179.812 22.5336H183.604L182.901 21.6969L174.409 11.5746L182.901 1.4523L183.604 0.615657V0.614258Z" fill="#00D193"/>
<path id="Vector_8" d="M204.219 12.9751C203.853 12.3469 203.359 11.8404 202.747 11.4655C204.012 10.5071 204.652 8.93735 204.652 6.78418C204.652 4.76671 204.126 3.21654 203.087 2.17842C202.049 1.14031 200.499 0.614258 198.482 0.614258H185.868V2.517C185.868 3.7258 186.562 4.41974 187.77 4.41974H197.525C199.341 4.41974 200.151 5.2298 200.151 7.0458C200.151 8.8618 199.341 9.67186 197.525 9.67186H186.913V13.4773H197.873C199.689 13.4773 200.499 14.2874 200.499 16.1034C200.499 17.9194 199.689 18.7295 197.873 18.7295H187.422C186.213 18.7295 185.519 19.4234 185.519 20.6322V22.535H198.83C200.848 22.535 202.398 22.0089 203.436 20.9708C204.474 19.9327 205 18.3825 205 16.365C205 15.0051 204.737 13.8649 204.219 12.9765V12.9751Z" fill="#00D193"/>
</g>
</svg>
