<svg height="500" viewBox="0 0 500 500" width="500" xmlns="http://www.w3.org/2000/svg"><g fill="none" fill-rule="evenodd"><path d="m180.291356 0h139.45742c62.675576 0 85.405129 6.52210995 108.320291 18.7836767 22.649853 11.992649 41.168692 30.5222724 53.149329 53.1802811 12.255197 22.912674 18.781604 45.6547692 18.781604 108.3322462v139.472813c0 62.682494-6.52139 85.414555-18.781604 108.332246-11.997268 22.63786-30.524344 41.144258-53.174412 53.11506-22.910145 12.261567-45.649731 18.783677-108.315274 18.783677h-139.45742c-62.680593 0-85.405129-6.52211-108.3202907-18.783677-22.6543916-11.983473-41.1815744-30.50396-53.1744121-53.155196-12.25519704-22.917691-18.7765872-45.654769-18.7765872-108.332246v-139.472813c0-62.712596 6.52139016-85.4195723 18.7765872-108.3322462 11.9893119-22.6601541 30.5167589-41.189646 53.1744121-53.1802812 22.9352275-12.21641364 45.6597637-18.7435406 108.3403567-18.7435406z" fill="#c8ff04"/><g transform="translate(111 107)"><path d="m58.2879763 63.9470974 166.0823667.014998.014998 166.1444616-166.0823673-.014998z" stroke="#979797" stroke-width="2.687155" transform="matrix(.97437006 .22495105 -.22495105 .97437006 36.696289 -28.025542)"/><path d="m255.316287 242.473967-33.247644-4.079316c-2.815057-.344011-5.377118 1.657504-5.724605 4.472134l-4.074114 33.132014c-.545416 4.417844-4.566826 7.559421-8.98534 7.019462l-165.8583786-20.349978c-23.3610709-2.866284-39.97310624-24.118598-37.10401957-47.468372l21.84576437-177.7895583c2.8690867-23.3497736 24.1328307-39.95492247 47.4939015-37.08863811l177.9119433 21.82888901c23.36107 2.8662843 39.973106 24.1185984 37.104019 47.468372l-20.376911 165.8354404c-.544326 4.418265-4.565908 7.560269-8.984616 7.019551z" fill="#1e1e1e"/><path d="m234.644741 259.795456 37.185586.001327c2.836392.000467 5.135716 2.299792 5.136183 5.136183l.001327 37.204304c.000468 2.836535-2.298916 5.136082-5.13545 5.136184-.000122 0-.000244 0-.000366-.000367l-37.185587-.001326c-2.836391-.000468-5.135716-2.299792-5.136183-5.136184l-.001327-37.204304c-.000468-2.836535 2.298916-5.136082 5.13545-5.136183.000122 0 .000245 0 .000367.000366z" fill="#1e1e1e" transform="matrix(.99254615 .12186934 -.12186934 .99254615 36.441736 -28.748574)"/><path d="m102.697124 61.084622 79.274029 95.826217c.56759.686101 1.583906.782173 2.270007.214583.370264-.306308.584598-.761811.584581-1.242353l-.00329-92.2605721c-.000108-3.0135687 2.441822-5.4564616 5.454203-5.4563542l31.362785.0011189c3.012381.0001075 5.454485 2.4431747 5.454592 5.4567434l.005644 158.239914c0 3.013569-2.441822 5.456354-5.454203 5.456354h-33.024702c-2.402053 0-4.678981-1.071171-6.210467-2.921687l-79.274272-95.788231c-.567724-.685989-1.58406-.781862-2.270049-.214138-.370119.30631-.584355.76172-.584338 1.242151l.003192 89.492753c.000161 4.520353-3.6627334 8.184692-8.1813042 8.184531l-25.9083881-.000924c-4.5185708-.000161-8.1817269-3.664762-8.1818881-8.185115l-.005449-152.7833658c0-4.520353 3.6627335-8.1845313 8.1813043-8.1845313h30.296537c2.4026069 0 4.6800001 1.0716627 6.2114761 2.9229061z" fill="#c8ff04" stroke="#1e1e1e" stroke-width="2.5" transform="matrix(.99189444 .12706461 -.12706461 .99189444 19.292806 -16.95654)"/></g></g></svg>