<svg width="70" height="70" viewBox="0 0 70 70" fill="none" xmlns="http://www.w3.org/2000/svg">
<path d="M52.5 55.0086H50.2833C47.95 55.0086 45.7333 55.9127 44.1 57.546L39.1124 62.4752C36.8374 64.721 33.1334 64.721 30.8584 62.4752L25.8708 57.546C24.2375 55.9127 21.9917 55.0086 19.6875 55.0086H17.5C12.6583 55.0086 8.75 51.1295 8.75 46.3461V14.5252C8.75 9.74187 12.6583 5.86279 17.5 5.86279H52.5C57.3417 5.86279 61.25 9.74187 61.25 14.5252V46.3461C61.25 51.1003 57.3417 55.0086 52.5 55.0086Z" stroke="#00D193" stroke-width="1.5" stroke-miterlimit="10" stroke-linecap="round" stroke-linejoin="round"/>
<path d="M35 29.167C38.7532 29.167 41.7959 26.1244 41.7959 22.3711C41.7959 18.6179 38.7532 15.5754 35 15.5754C31.2467 15.5754 28.2041 18.6179 28.2041 22.3711C28.2041 26.1244 31.2467 29.167 35 29.167Z" stroke="#00D193" stroke-width="1.5" stroke-linecap="round" stroke-linejoin="round"/>
<path d="M46.6667 45.6752C46.6667 40.4252 41.4459 36.167 35 36.167C28.5542 36.167 23.3334 40.4252 23.3334 45.6752" stroke="#00D193" stroke-width="1.5" stroke-linecap="round" stroke-linejoin="round"/>
</svg>
