<svg width="64" height="64" viewBox="0 0 64 64" fill="none" xmlns="http://www.w3.org/2000/svg">
<path d="M45.2267 16.4534C50.56 20.16 54.24 26.0534 54.9867 32.8534" stroke="#00D193" stroke-width="1.5" stroke-linecap="round" stroke-linejoin="round"/>
<path d="M9.30664 32.9867C9.99997 26.2133 13.6266 20.32 18.9066 16.5867" stroke="#00D193" stroke-width="1.5" stroke-linecap="round" stroke-linejoin="round"/>
<path d="M21.8412 55.8398C24.9345 57.4132 28.4545 58.2932 32.1612 58.2932C35.7345 58.2932 39.0945 57.4932 42.1079 56.0265" stroke="#00D193" stroke-width="1.5" stroke-linecap="round" stroke-linejoin="round"/>
<path d="M32.1608 20.5335C36.255 20.5335 39.5741 17.2144 39.5741 13.1201C39.5741 9.02585 36.255 5.70679 32.1608 5.70679C28.0665 5.70679 24.7474 9.02585 24.7474 13.1201C24.7474 17.2144 28.0665 20.5335 32.1608 20.5335Z" stroke="#00D193" stroke-width="1.5" stroke-linecap="round" stroke-linejoin="round"/>
<path d="M12.88 53.1199C16.9743 53.1199 20.2933 49.8008 20.2933 45.7065C20.2933 41.6123 16.9743 38.2932 12.88 38.2932C8.78574 38.2932 5.46667 41.6123 5.46667 45.7065C5.46667 49.8008 8.78574 53.1199 12.88 53.1199Z" stroke="#00D193" stroke-width="1.5" stroke-linecap="round" stroke-linejoin="round"/>
<path d="M51.119 53.1199C55.2133 53.1199 58.5324 49.8008 58.5324 45.7065C58.5324 41.6123 55.2133 38.2932 51.119 38.2932C47.0248 38.2932 43.7057 41.6123 43.7057 45.7065C43.7057 49.8008 47.0248 53.1199 51.119 53.1199Z" stroke="#00D193" stroke-width="1.5" stroke-linecap="round" stroke-linejoin="round"/>
</svg>
