<svg width="555" height="46" viewBox="0 0 555 46" fill="none" xmlns="http://www.w3.org/2000/svg">
<path d="M0.503 0.323814H16.2715V5.46884H6.12441V30.7652H0.503V0.323814ZM60.957 41.5316C58.3845 41.5316 56.1137 41.0711 54.1446 40.1501C52.1755 39.2291 50.6352 37.9111 49.5236 36.1961C48.412 34.481 47.8563 32.4167 47.8563 30.003V28.6691H54.0493V30.003C54.0493 32.0038 54.6686 33.5124 55.9073 34.5287C57.1459 35.5132 58.8291 36.0055 60.957 36.0055C63.1166 36.0055 64.7205 35.5767 65.7686 34.7192C66.8484 33.8617 67.3883 32.766 67.3883 31.4321C67.3883 30.5111 67.1183 29.7648 66.5784 29.1931C66.0703 28.6214 65.308 28.1609 64.2917 27.8116C63.3072 27.4305 62.1003 27.0811 60.6712 26.7635L59.5755 26.5253C57.2888 26.0172 55.3197 25.382 53.6682 24.6198C52.0485 23.8258 50.794 22.7936 49.9047 21.5232C49.0472 20.2528 48.6185 18.6013 48.6185 16.5687C48.6185 14.5361 49.0949 12.8053 50.0477 11.3761C51.0322 9.91515 52.3978 8.80357 54.1446 8.04135C55.9231 7.24736 58.0034 6.85037 60.3853 6.85037C62.7673 6.85037 64.8793 7.26324 66.7213 8.08899C68.5951 8.88297 70.0561 10.0898 71.1041 11.7096C72.184 13.2975 72.7239 15.2984 72.7239 17.7121V19.1413H66.5308V17.7121C66.5308 16.4417 66.2767 15.4254 65.7686 14.6632C65.2922 13.8692 64.5935 13.2975 63.6724 12.9482C62.7514 12.5671 61.6557 12.3765 60.3853 12.3765C58.4798 12.3765 57.0665 12.7417 56.1455 13.4722C55.2562 14.1709 54.8116 15.1396 54.8116 16.3782C54.8116 17.2039 55.018 17.9026 55.4309 18.4743C55.8755 19.046 56.5266 19.5224 57.3841 19.9035C58.2416 20.2846 59.3373 20.6181 60.6712 20.9039L61.7669 21.1421C64.1488 21.6502 66.2132 22.3013 67.96 23.0953C69.7385 23.8893 71.12 24.9373 72.1046 26.2395C73.0891 27.5416 73.5814 29.209 73.5814 31.2416C73.5814 33.2742 73.0573 35.0686 72.0093 36.6248C70.993 38.1493 69.532 39.3561 67.6265 40.2454C65.7527 41.1029 63.5295 41.5316 60.957 41.5316ZM119.813 41.5316C115.62 41.5316 112.286 40.3883 109.808 38.1016C107.331 35.7832 106.092 32.4802 106.092 28.1927V20.1893C106.092 15.9018 107.331 12.6147 109.808 10.328C112.286 8.00959 115.62 6.85037 119.813 6.85037C124.005 6.85037 127.339 8.00959 129.817 10.328C132.294 12.6147 133.533 15.9018 133.533 20.1893V28.1927C133.533 32.4802 132.294 35.7832 129.817 38.1016C127.339 40.3883 124.005 41.5316 119.813 41.5316ZM119.813 35.9102C122.163 35.9102 123.989 35.2274 125.291 33.8617C126.593 32.4961 127.244 30.6699 127.244 28.3832V19.9988C127.244 17.7121 126.593 15.8859 125.291 14.5203C123.989 13.1546 122.163 12.4718 119.813 12.4718C117.494 12.4718 115.668 13.1546 114.334 14.5203C113.032 15.8859 112.381 17.7121 112.381 19.9988V28.3832C112.381 30.6699 113.032 32.4961 114.334 33.8617C115.668 35.2274 117.494 35.9102 119.813 35.9102ZM167.632 40.8647V7.51732H173.92V35.148H189.165V40.8647H167.632ZM221.082 40.8647V35.3385H225.465V13.0435H221.082V7.51732H234.802C239.281 7.51732 242.679 8.66065 244.997 10.9473C247.347 13.2022 248.523 16.5687 248.523 21.0468V27.3352C248.523 31.8133 247.347 35.1956 244.997 37.4823C242.679 39.7372 239.281 40.8647 234.802 40.8647H221.082ZM231.754 35.148H234.898C237.439 35.148 239.296 34.481 240.472 33.1472C241.647 31.8133 242.234 29.9395 242.234 27.5257V20.8563C242.234 18.4108 241.647 16.537 240.472 15.2348C239.296 13.901 237.439 13.234 234.898 13.234H231.754V35.148ZM335.984 41.5316C331.792 41.5316 328.457 40.3883 325.98 38.1016C323.503 35.7832 322.264 32.4802 322.264 28.1927V20.1893C322.264 15.9018 323.503 12.6147 325.98 10.328C328.457 8.00959 331.792 6.85037 335.984 6.85037C340.176 6.85037 343.511 8.00959 345.988 10.328C348.466 12.6147 349.704 15.9018 349.704 20.1893V28.1927C349.704 32.4802 348.466 35.7832 345.988 38.1016C343.511 40.3883 340.176 41.5316 335.984 41.5316ZM335.984 35.9102C338.334 35.9102 340.161 35.2274 341.463 33.8617C342.765 32.4961 343.416 30.6699 343.416 28.3832V19.9988C343.416 17.7121 342.765 15.8859 341.463 14.5203C340.161 13.1546 338.334 12.4718 335.984 12.4718C333.666 12.4718 331.84 13.1546 330.506 14.5203C329.204 15.8859 328.553 17.7121 328.553 19.9988V28.3832C328.553 30.6699 329.204 32.4961 330.506 33.8617C331.84 35.2274 333.666 35.9102 335.984 35.9102ZM396.666 41.5316C393.935 41.5316 391.585 41.0394 389.615 40.0548C387.678 39.0385 386.185 37.6093 385.137 35.7673C384.121 33.8935 383.613 31.6862 383.613 29.1455V7.51732H389.901V29.336C389.901 31.3686 390.473 32.9725 391.616 34.1476C392.791 35.3227 394.475 35.9102 396.666 35.9102C398.857 35.9102 400.525 35.3227 401.668 34.1476C402.843 32.9725 403.431 31.3686 403.431 29.336V7.51732H409.719V29.1455C409.719 31.6862 409.195 33.8935 408.147 35.7673C407.131 37.6093 405.638 39.0385 403.669 40.0548C401.732 41.0394 399.397 41.5316 396.666 41.5316ZM452.112 40.8647V13.234H442.394V7.51732H468.119V13.234H458.4V40.8647H452.112ZM554.18 45.2475H538.411V40.1025H548.558V14.8061H554.18V45.2475Z" fill="white"/>
</svg>
