<svg width="64" height="64" viewBox="0 0 64 64" fill="none" xmlns="http://www.w3.org/2000/svg">
<path d="M50.6666 42.6669V17.3336C50.6666 14.4002 48.2666 12.0002 45.3333 12.0002H30.6666" stroke="#00D193" stroke-width="1.5" stroke-linecap="round" stroke-linejoin="round"/>
<path d="M37.3334 5.33362L29.3334 12.0003L37.3334 18.667" stroke="#00D193" stroke-width="1.5" stroke-linecap="round" stroke-linejoin="round"/>
<path d="M50.6666 58.6669C55.0849 58.6669 58.6666 55.0851 58.6666 50.6669C58.6666 46.2486 55.0849 42.6669 50.6666 42.6669C46.2483 42.6669 42.6666 46.2486 42.6666 50.6669C42.6666 55.0851 46.2483 58.6669 50.6666 58.6669Z" stroke="#00D193" stroke-width="1.5" stroke-linecap="round" stroke-linejoin="round"/>
<path d="M13.3334 21.3336V46.6669C13.3334 49.6003 15.7334 52.0003 18.6667 52.0003H33.3334" stroke="#00D193" stroke-width="1.5" stroke-linecap="round" stroke-linejoin="round"/>
<path d="M26.6666 58.667L34.6666 52.0003L26.6666 45.3336" stroke="#00D193" stroke-width="1.5" stroke-linecap="round" stroke-linejoin="round"/>
<path d="M13.3334 21.3336C17.7517 21.3336 21.3334 17.7519 21.3334 13.3336C21.3334 8.91534 17.7517 5.33362 13.3334 5.33362C8.9151 5.33362 5.33337 8.91534 5.33337 13.3336C5.33337 17.7519 8.9151 21.3336 13.3334 21.3336Z" stroke="#00D193" stroke-width="1.5" stroke-linecap="round" stroke-linejoin="round"/>
</svg>
