<svg width="64" height="64" viewBox="0 0 64 64" fill="none" xmlns="http://www.w3.org/2000/svg">
<path d="M27.8667 8.13353L17.8933 20.5602C15.6267 23.3869 16.4267 27.0135 19.6533 28.6135L29.6 33.6002C30.9067 34.2402 33.04 34.2402 34.3467 33.6002L44.2933 28.6135C47.52 26.9869 48.32 23.3602 46.0533 20.5602L36.1067 8.13353C33.8667 5.2802 30.1333 5.2802 27.8667 8.13353Z" stroke="#00D193" stroke-width="1.5" stroke-miterlimit="10" stroke-linecap="round" stroke-linejoin="round"/>
<path d="M32 6.13354V20.1602" stroke="#00D193" stroke-width="1.5" stroke-miterlimit="10" stroke-linecap="round" stroke-linejoin="round"/>
<path d="M20.8 28.5602L32 20.1602L43.2 28.5602" stroke="#00D193" stroke-width="1.5" stroke-miterlimit="10" stroke-linecap="round" stroke-linejoin="round"/>
<path d="M23.3866 38.4802L27.68 40.4002C30.4266 41.6268 33.5733 41.6268 36.3466 40.4002L40.64 38.4802C44.48 36.7735 48.0266 41.4135 45.36 44.6668L36.1333 55.9468C33.8666 58.7202 30.16 58.7202 27.8666 55.9468L18.6666 44.6668C15.9733 41.4135 19.52 36.7735 23.3866 38.4802Z" stroke="#00D193" stroke-width="1.5" stroke-miterlimit="10" stroke-linecap="round" stroke-linejoin="round"/>
</svg>
