<svg width="64" height="64" viewBox="0 0 64 64" fill="none" xmlns="http://www.w3.org/2000/svg">
<path d="M56.2133 22.88V41.1199C56.2133 44.1066 54.6133 46.88 52.0267 48.4L36.1867 57.5467C33.6 59.04 30.4 59.04 27.7867 57.5467L11.9467 48.4C9.36001 46.9067 7.76001 44.1332 7.76001 41.1199V22.88C7.76001 19.8933 9.36001 17.1199 11.9467 15.5999L27.7867 6.45325C30.3733 4.95992 33.5733 4.95992 36.1867 6.45325L52.0267 15.5999C54.6133 17.1199 56.2133 19.8667 56.2133 22.88Z" stroke="#00D193" stroke-width="1.5" stroke-linecap="round" stroke-linejoin="round"/>
<path d="M32.0003 29.3333C35.4319 29.3333 38.2137 26.5515 38.2137 23.12C38.2137 19.6884 35.4319 16.9067 32.0003 16.9067C28.5688 16.9067 25.787 19.6884 25.787 23.12C25.787 26.5515 28.5688 29.3333 32.0003 29.3333Z" stroke="#00D193" stroke-width="1.5" stroke-linecap="round" stroke-linejoin="round"/>
<path d="M42.667 44.4266C42.667 39.6266 37.8936 35.7334 32.0003 35.7334C26.107 35.7334 21.3336 39.6266 21.3336 44.4266" stroke="#00D193" stroke-width="1.5" stroke-linecap="round" stroke-linejoin="round"/>
</svg>
