<svg width="64" height="64" viewBox="0 0 64 64" fill="none" xmlns="http://www.w3.org/2000/svg">
<path d="M24 22.349H36.4923C39.2616 22.349 41.5077 24.8413 41.5077 27.3644C41.5077 30.1337 39.2616 32.3798 36.4923 32.3798H24V22.349Z" stroke="#00D193" stroke-width="1.5" stroke-miterlimit="10" stroke-linecap="round" stroke-linejoin="round"/>
<path d="M24 32.349H38.2769C41.4462 32.349 44 34.5951 44 37.3644C44 40.1336 41.4462 42.3798 38.2769 42.3798H24V32.349Z" stroke="#00D193" stroke-width="1.5" stroke-miterlimit="10" stroke-linecap="round" stroke-linejoin="round"/>
<path d="M32.7385 42.3491V47.3645" stroke="#00D193" stroke-width="1.5" stroke-miterlimit="10" stroke-linecap="round" stroke-linejoin="round"/>
<path d="M26.4922 42.3491V47.3645" stroke="#00D193" stroke-width="1.5" stroke-miterlimit="10" stroke-linecap="round" stroke-linejoin="round"/>
<path d="M32.7385 17.3336V22.349" stroke="#00D193" stroke-width="1.5" stroke-miterlimit="10" stroke-linecap="round" stroke-linejoin="round"/>
<path d="M26.4922 17.3336V22.349" stroke="#00D193" stroke-width="1.5" stroke-miterlimit="10" stroke-linecap="round" stroke-linejoin="round"/>
<path d="M28.7385 22.349H20" stroke="#00D193" stroke-width="1.5" stroke-miterlimit="10" stroke-linecap="round" stroke-linejoin="round"/>
<path d="M28.7385 42.3491H20" stroke="#00D193" stroke-width="1.5" stroke-miterlimit="10" stroke-linecap="round" stroke-linejoin="round"/>
<path d="M31.9999 58.6669C46.7275 58.6669 58.6666 46.7278 58.6666 32.0003C58.6666 17.2727 46.7275 5.33359 31.9999 5.33359C17.2723 5.33359 5.33325 17.2727 5.33325 32.0003C5.33325 46.7278 17.2723 58.6669 31.9999 58.6669Z" stroke="#00D193" stroke-width="1.5" stroke-miterlimit="10"/>
</svg>
