<svg width="65" height="64" viewBox="0 0 65 64" fill="none" xmlns="http://www.w3.org/2000/svg">
<path d="M38.0133 30.2403C39.0533 25.867 35.2399 22.0535 30.8666 23.0935C28.8132 23.6002 27.1332 25.2802 26.6266 27.3336C25.5866 31.7069 29.3999 35.5202 33.7732 34.4802C35.8532 33.9735 37.5333 32.2936 38.0133 30.2403Z" stroke="#00D193" stroke-width="1.5" stroke-linecap="round" stroke-linejoin="round"/>
<path d="M48.3599 45.8403C52.9199 41.5736 55.7733 35.5202 55.7733 28.7735C55.7733 15.8135 45.2666 5.33359 32.3333 5.33359C19.4 5.33359 8.89331 15.8402 8.89331 28.7735C8.89331 35.5469 11.7733 41.6535 16.3866 45.9202" stroke="#00D193" stroke-width="1.5" stroke-linecap="round" stroke-linejoin="round"/>
<path d="M21.6666 38.8002C19.2133 36.1869 17.6932 32.6669 17.6932 28.7735C17.6932 20.6935 24.2533 14.1335 32.3333 14.1335C40.4133 14.1335 46.9733 20.6935 46.9733 28.7735C46.9733 32.6669 45.4533 36.1602 42.9999 38.8002" stroke="#00D193" stroke-width="1.5" stroke-linecap="round" stroke-linejoin="round"/>
<path d="M27.8 44.4268L23.96 49.2003C20.92 53.0136 23.6133 58.6402 28.4933 58.6402H36.1466C41.0266 58.6402 43.7467 52.9869 40.68 49.2003L36.84 44.4268C34.5466 41.5202 30.12 41.5202 27.8 44.4268Z" stroke="#00D193" stroke-width="1.5" stroke-linecap="round" stroke-linejoin="round"/>
</svg>
