<svg width="65" height="64" viewBox="0 0 65 64" fill="none" xmlns="http://www.w3.org/2000/svg">
<path d="M32.6666 40.0002C37.0849 40.0002 40.6666 36.4185 40.6666 32.0002C40.6666 27.582 37.0849 24.0002 32.6666 24.0002C28.2483 24.0002 24.6666 27.582 24.6666 32.0002C24.6666 36.4185 28.2483 40.0002 32.6666 40.0002Z" stroke="#00D193" stroke-width="1.5" stroke-miterlimit="10" stroke-linecap="round" stroke-linejoin="round"/>
<path d="M6 34.3469V29.6536C6 26.8802 8.26667 24.5869 11.0667 24.5869C15.8933 24.5869 17.8667 21.1736 15.44 16.9869C14.0533 14.5869 14.88 11.4669 17.3067 10.0802L21.92 7.44024C24.0267 6.1869 26.7467 6.93357 28 9.04024L28.2933 9.5469C30.6933 13.7336 34.64 13.7336 37.0667 9.5469L37.36 9.04024C38.6133 6.93357 41.3333 6.1869 43.44 7.44024L48.0533 10.0802C50.48 11.4669 51.3067 14.5869 49.92 16.9869C47.4933 21.1736 49.4667 24.5869 54.2933 24.5869C57.0667 24.5869 59.36 26.8536 59.36 29.6536V34.3469C59.36 37.1202 57.0933 39.4136 54.2933 39.4136C49.4667 39.4136 47.4933 42.8269 49.92 47.0136C51.3067 49.4402 50.48 52.5336 48.0533 53.9202L43.44 56.5602C41.3333 57.8136 38.6133 57.0669 37.36 54.9602L37.0667 54.4536C34.6667 50.2669 30.72 50.2669 28.2933 54.4536L28 54.9602C26.7467 57.0669 24.0267 57.8136 21.92 56.5602L17.3067 53.9202C14.88 52.5336 14.0533 49.4136 15.44 47.0136C17.8667 42.8269 15.8933 39.4136 11.0667 39.4136C8.26667 39.4136 6 37.1202 6 34.3469Z" stroke="#00D193" stroke-width="1.5" stroke-miterlimit="10" stroke-linecap="round" stroke-linejoin="round"/>
</svg>
